<svg xmlns="http://www.w3.org/2000/svg" viewBox="0 0 900 420">
  <!-- Background -->
  <rect width="900" height="420" fill="#0f0f0f" rx="16"/>

  <!-- Title -->
  <text x="450" y="35" font-family="Segoe UI, Arial, sans-serif" font-size="22" font-weight="700" fill="#f9ab00" text-anchor="middle">Architektur</text>

  <!-- Divider -->
  <line x1="30" y1="48" x2="870" y2="48" stroke="#333" stroke-width="1"/>

  <!-- Frontend Box -->
  <rect x="20" y="62" width="250" height="335" rx="12" fill="#1a1a1a" stroke="#f9ab00" stroke-width="2"/>
  <text x="145" y="88" font-family="Segoe UI, Arial, sans-serif" font-size="14" font-weight="700" fill="#f9ab00" text-anchor="middle">Frontend (React)</text>

  <rect x="35" y="100" width="220" height="24" rx="6" fill="#252525"/>
  <text x="145" y="117" font-family="Segoe UI, Arial, sans-serif" font-size="10" fill="#e0e0e0" text-anchor="middle">Entdecken-Seite mit Illustrationen</text>
  <rect x="35" y="130" width="220" height="24" rx="6" fill="#252525"/>
  <text x="145" y="147" font-family="Segoe UI, Arial, sans-serif" font-size="10" fill="#e0e0e0" text-anchor="middle">Skills &amp; Feature Hub</text>
  <rect x="35" y="160" width="220" height="24" rx="6" fill="#252525"/>
  <text x="145" y="177" font-family="Segoe UI, Arial, sans-serif" font-size="10" fill="#e0e0e0" text-anchor="middle">Magic Features (6 neue Views)</text>
  <rect x="35" y="190" width="220" height="24" rx="6" fill="#252525"/>
  <text x="145" y="207" font-family="Segoe UI, Arial, sans-serif" font-size="10" fill="#e0e0e0" text-anchor="middle">Echtzeit-Chat mit Streaming</text>
  <rect x="35" y="220" width="220" height="24" rx="6" fill="#252525"/>
  <text x="145" y="237" font-family="Segoe UI, Arial, sans-serif" font-size="10" fill="#e0e0e0" text-anchor="middle">Slash-Commands &amp; Drag&amp;Drop</text>
  <rect x="35" y="250" width="220" height="24" rx="6" fill="#252525"/>
  <text x="145" y="267" font-family="Segoe UI, Arial, sans-serif" font-size="10" fill="#e0e0e0" text-anchor="middle">Dark/Light/OLED Themes</text>
  <rect x="35" y="280" width="105" height="24" rx="6" fill="#252525"/>
  <text x="87" y="297" font-family="Segoe UI, Arial, sans-serif" font-size="10" fill="#e0e0e0" text-anchor="middle">Whiteboard</text>
  <rect x="150" y="280" width="105" height="24" rx="6" fill="#252525"/>
  <text x="202" y="297" font-family="Segoe UI, Arial, sans-serif" font-size="10" fill="#e0e0e0" text-anchor="middle">PWA</text>
  <rect x="35" y="310" width="220" height="24" rx="6" fill="#252525"/>
  <text x="145" y="327" font-family="Segoe UI, Arial, sans-serif" font-size="10" fill="#e0e0e0" text-anchor="middle">Multi-User &amp; Persoenlichkeiten</text>
  <rect x="35" y="340" width="220" height="24" rx="6" fill="#252525"/>
  <text x="145" y="357" font-family="Segoe UI, Arial, sans-serif" font-size="10" fill="#e0e0e0" text-anchor="middle">Self-Test &amp; PDF-Export</text>

  <!-- Arrow Frontend -> Backend -->
  <line x1="275" y1="230" x2="320" y2="230" stroke="#f9ab00" stroke-width="2"/>
  <polygon points="315,225 325,230 315,235" fill="#f9ab00"/>

  <!-- Backend Box -->
  <rect x="330" y="62" width="250" height="335" rx="12" fill="#1a1a1a" stroke="#2196F3" stroke-width="2"/>
  <text x="455" y="88" font-family="Segoe UI, Arial, sans-serif" font-size="14" font-weight="700" fill="#2196F3" text-anchor="middle">Backend (Express)</text>

  <rect x="345" y="100" width="220" height="24" rx="6" fill="#252525"/>
  <text x="455" y="117" font-family="Segoe UI, Arial, sans-serif" font-size="10" fill="#e0e0e0" text-anchor="middle">5-Stufen AI Router</text>
  <rect x="345" y="130" width="220" height="24" rx="6" fill="#252525"/>
  <text x="455" y="147" font-family="Segoe UI, Arial, sans-serif" font-size="10" fill="#e0e0e0" text-anchor="middle">5-Layer Memory System</text>
  <rect x="345" y="160" width="220" height="24" rx="6" fill="#252525"/>
  <text x="455" y="177" font-family="Segoe UI, Arial, sans-serif" font-size="10" fill="#e0e0e0" text-anchor="middle">WebSocket Streaming</text>
  <rect x="345" y="190" width="220" height="24" rx="6" fill="#252525"/>
  <text x="455" y="207" font-family="Segoe UI, Arial, sans-serif" font-size="10" fill="#e0e0e0" text-anchor="middle">REST API (35+ Endpoints)</text>
  <rect x="345" y="220" width="220" height="24" rx="6" fill="#252525"/>
  <text x="455" y="237" font-family="Segoe UI, Arial, sans-serif" font-size="10" fill="#e0e0e0" text-anchor="middle">Code-Sandbox (JS/Python/PS)</text>
  <rect x="345" y="250" width="220" height="24" rx="6" fill="#252525"/>
  <text x="455" y="267" font-family="Segoe UI, Arial, sans-serif" font-size="10" fill="#e0e0e0" text-anchor="middle">Skill-System &amp; Plugins</text>
  <rect x="345" y="280" width="220" height="24" rx="6" fill="#252525"/>
  <text x="455" y="297" font-family="Segoe UI, Arial, sans-serif" font-size="10" fill="#e0e0e0" text-anchor="middle">Web-Suche &amp; Auto-Learning</text>
  <rect x="345" y="310" width="220" height="24" rx="6" fill="#252525"/>
  <text x="455" y="327" font-family="Segoe UI, Arial, sans-serif" font-size="10" fill="#e0e0e0" text-anchor="middle">SpellCheck &amp; Encoding-Fix</text>
  <rect x="345" y="340" width="220" height="24" rx="6" fill="#252525"/>
  <text x="455" y="357" font-family="Segoe UI, Arial, sans-serif" font-size="10" fill="#e0e0e0" text-anchor="middle">Security (Auth, Rate-Limit, CORS)</text>

  <!-- Arrow Backend -> KI -->
  <line x1="585" y1="170" x2="630" y2="170" stroke="#2196F3" stroke-width="2"/>
  <polygon points="625,165 635,170 625,175" fill="#2196F3"/>

  <!-- KI & ML Box -->
  <rect x="640" y="62" width="240" height="160" rx="12" fill="#1a1a1a" stroke="#4CAF50" stroke-width="2"/>
  <text x="760" y="88" font-family="Segoe UI, Arial, sans-serif" font-size="14" font-weight="700" fill="#4CAF50" text-anchor="middle">KI &amp; ML</text>
  <rect x="655" y="100" width="210" height="24" rx="6" fill="#252525"/>
  <text x="760" y="117" font-family="Segoe UI, Arial, sans-serif" font-size="10" fill="#e0e0e0" text-anchor="middle">Claude (Anthropic API)</text>
  <rect x="655" y="130" width="210" height="24" rx="6" fill="#252525"/>
  <text x="760" y="147" font-family="Segoe UI, Arial, sans-serif" font-size="10" fill="#e0e0e0" text-anchor="middle">Ollama / Gemma3 (lokal)</text>
  <rect x="655" y="160" width="210" height="24" rx="6" fill="#252525"/>
  <text x="760" y="177" font-family="Segoe UI, Arial, sans-serif" font-size="10" fill="#e0e0e0" text-anchor="middle">Transformers.js (Embeddings)</text>

  <!-- Arrow Backend -> DB -->
  <line x1="585" y1="310" x2="630" y2="310" stroke="#FF9800" stroke-width="2"/>
  <polygon points="625,305 635,310 625,315" fill="#FF9800"/>

  <!-- Datenbank Box -->
  <rect x="640" y="240" width="240" height="157" rx="12" fill="#1a1a1a" stroke="#FF9800" stroke-width="2"/>
  <text x="760" y="266" font-family="Segoe UI, Arial, sans-serif" font-size="14" font-weight="700" fill="#FF9800" text-anchor="middle">Datenbank</text>
  <rect x="655" y="278" width="210" height="24" rx="6" fill="#252525"/>
  <text x="760" y="295" font-family="Segoe UI, Arial, sans-serif" font-size="10" fill="#e0e0e0" text-anchor="middle">SQLite / PostgreSQL (Prisma)</text>
  <rect x="655" y="308" width="210" height="24" rx="6" fill="#252525"/>
  <text x="760" y="325" font-family="Segoe UI, Arial, sans-serif" font-size="10" fill="#e0e0e0" text-anchor="middle">ChromaDB (Vektoren)</text>
  <rect x="655" y="338" width="210" height="24" rx="6" fill="#252525"/>
  <text x="760" y="355" font-family="Segoe UI, Arial, sans-serif" font-size="10" fill="#e0e0e0" text-anchor="middle">Redis (Optional, Caching)</text>

  <!-- Footer -->
  <line x1="20" y1="405" x2="880" y2="405" stroke="#333" stroke-width="1"/>
  <text x="450" y="416" font-family="Segoe UI, Arial, sans-serif" font-size="10" fill="#666" text-anchor="middle">Hybrid-Routing: Einfache Anfragen lokal (Ollama), komplexe via Claude API</text>
</svg>