<svg xmlns="http://www.w3.org/2000/svg" viewBox="0 0 32 32" width="32" height="32">
  <defs>
    <linearGradient id="g" x1="0%" y1="0%" x2="100%" y2="100%">
      <stop offset="0%" stop-color="#ffc333"/>
      <stop offset="100%" stop-color="#ff8800"/>
    </linearGradient>
  </defs>
  <!-- Main sparkle (scaled from 24x24 -> 32x32, center 12->16, scale=32/24≈1.333) -->
  <g transform="translate(16 16) scale(1.333) translate(-12 -12)">
    <path d="m12 3-1.912 5.813a2 2 0 0 1-1.275 1.275L3 12l5.813 1.912a2 2 0 0 1 1.275 1.275L12 21l1.912-5.813a2 2 0 0 1 1.275-1.275L21 12l-5.813-1.912a2 2 0 0 1-1.275-1.275L12 3Z"
          fill="url(#g)"/>
    <path d="M19 3 L18.5 5.5 L16 6 L18.5 6.5 L19 9 L19.5 6.5 L22 6 L19.5 5.5 Z"
          fill="#ffc333"/>
  </g>
</svg>
